<svg width="21" height="21" viewBox="0 0 21 21" fill="none" xmlns="http://www.w3.org/2000/svg">
<path d="M17.5017 8.93327C17.5017 13.0941 12.8858 17.4274 11.3358 18.7658C11.1914 18.8743 11.0157 18.9331 10.835 18.9331C10.6543 18.9331 10.4786 18.8743 10.3342 18.7658C8.78417 17.4274 4.16833 13.0941 4.16833 8.93327C4.16833 7.16516 4.87071 5.46947 6.12096 4.21922C7.3712 2.96898 9.06689 2.2666 10.835 2.2666C12.6031 2.2666 14.2988 2.96898 15.549 4.21922C16.7993 5.46947 17.5017 7.16516 17.5017 8.93327Z" stroke="#60A5FA" stroke-width="1.66667" stroke-linecap="round" stroke-linejoin="round"/>
<path d="M10.835 11.4326C12.2157 11.4326 13.335 10.3133 13.335 8.93262C13.335 7.55191 12.2157 6.43262 10.835 6.43262C9.45431 6.43262 8.33502 7.55191 8.33502 8.93262C8.33502 10.3133 9.45431 11.4326 10.835 11.4326Z" stroke="#60A5FA" stroke-width="1.66667" stroke-linecap="round" stroke-linejoin="round"/>
</svg>
