<svg width="25" height="25" viewBox="0 0 25 25" fill="none" xmlns="http://www.w3.org/2000/svg">
<path d="M17.825 2.58984H7.82501C5.06359 2.58984 2.82501 4.82842 2.82501 7.58984V17.5898C2.82501 20.3513 5.06359 22.5898 7.82501 22.5898H17.825C20.5864 22.5898 22.825 20.3513 22.825 17.5898V7.58984C22.825 4.82842 20.5864 2.58984 17.825 2.58984Z" stroke="#A8A29E" stroke-width="2" stroke-linecap="round" stroke-linejoin="round"/>
<path d="M16.825 11.9601C16.9484 12.7924 16.8063 13.6424 16.4188 14.3892C16.0313 15.136 15.4182 15.7416 14.6667 16.1198C13.9151 16.4981 13.0635 16.6297 12.2328 16.4961C11.4021 16.3624 10.6348 15.9702 10.0399 15.3753C9.44494 14.7804 9.05276 14.013 8.91909 13.1824C8.78543 12.3517 8.91709 11.5 9.29535 10.7485C9.67361 9.997 10.2792 9.38389 11.026 8.99639C11.7728 8.60889 12.6228 8.46673 13.455 8.59015C14.3039 8.71603 15.0899 9.11161 15.6967 9.71845C16.3036 10.3253 16.6991 11.1112 16.825 11.9601Z" stroke="#A8A29E" stroke-width="2" stroke-linecap="round" stroke-linejoin="round"/>
<path d="M18.325 7.08984H18.335" stroke="#A8A29E" stroke-width="2" stroke-linecap="round" stroke-linejoin="round"/>
</svg>
