<svg width="21" height="21" viewBox="0 0 21 21" fill="none" xmlns="http://www.w3.org/2000/svg">
<path d="M12.3617 14.4066C12.5338 14.4856 12.7277 14.5037 12.9114 14.4578C13.0952 14.4119 13.2578 14.3048 13.3725 14.1541L13.6684 13.7666C13.8236 13.5596 14.0249 13.3916 14.2563 13.2759C14.4878 13.1602 14.743 13.0999 15.0017 13.0999H17.5017C17.9437 13.0999 18.3676 13.2755 18.6802 13.5881C18.9928 13.9007 19.1684 14.3246 19.1684 14.7666V17.2666C19.1684 17.7086 18.9928 18.1326 18.6802 18.4451C18.3676 18.7577 17.9437 18.9333 17.5017 18.9333C13.5234 18.9333 9.70814 17.3529 6.89509 14.5399C4.08205 11.7268 2.50169 7.91152 2.50169 3.93327C2.50169 3.49124 2.67729 3.06732 2.98985 2.75476C3.30241 2.4422 3.72633 2.2666 4.16836 2.2666H6.66836C7.11039 2.2666 7.53431 2.4422 7.84687 2.75476C8.15943 3.06732 8.33503 3.49124 8.33503 3.93327V6.43327C8.33503 6.69201 8.27479 6.9472 8.15907 7.17862C8.04336 7.41005 7.87535 7.61136 7.66836 7.7666L7.27836 8.0591C7.12537 8.17592 7.01754 8.34209 6.97319 8.52939C6.92883 8.7167 6.95068 8.91358 7.03503 9.0866C8.17393 11.3998 10.047 13.2706 12.3617 14.4066Z" stroke="#60A5FA" stroke-width="1.66667" stroke-linecap="round" stroke-linejoin="round"/>
</svg>
